<mxfile host="drawio-plugin" modified="2023-12-26T18:50:23.113Z" agent="5.0 (Macintosh; Intel Mac OS X 10_15_7) AppleWebKit/537.36 (KHTML, like Gecko) Chrome/104.0.5112.102 Safari/537.36" etag="x_i3aDAzvLD4e1QmQ2o0" version="20.5.3" type="embed"><diagram id="R2lEEEUBdFMjLlhIrx00" name="Page-1"><mxGraphModel dx="904" dy="632" grid="1" gridSize="10" guides="1" tooltips="1" connect="1" arrows="1" fold="1" page="1" pageScale="1" pageWidth="850" pageHeight="1100" math="0" shadow="0" extFonts="Permanent Marker^https://fonts.googleapis.com/css?family=Permanent+Marker"><root><mxCell id="0"/><mxCell id="1" parent="0"/><mxCell id="Yu_OpDTn2ILr5B7UPivO-33" style="edgeStyle=orthogonalEdgeStyle;rounded=0;orthogonalLoop=1;jettySize=auto;html=1;endArrow=ERoneToMany;endFill=0;dashed=1;" parent="1" source="Yu_OpDTn2ILr5B7UPivO-1" target="Yu_OpDTn2ILr5B7UPivO-28" edge="1"><mxGeometry relative="1" as="geometry"/></mxCell><mxCell id="Yu_OpDTn2ILr5B7UPivO-1" value="Судья" style="swimlane;fontStyle=0;childLayout=stackLayout;horizontal=1;startSize=26;horizontalStack=0;resizeParent=1;resizeParentMax=0;resizeLast=0;collapsible=1;marginBottom=0;align=center;fontSize=14;" parent="1" vertex="1"><mxGeometry x="240" y="450" width="160" height="116" as="geometry"/></mxCell><mxCell id="Yu_OpDTn2ILr5B7UPivO-56" value="Имя" style="text;strokeColor=none;fillColor=none;spacingLeft=4;spacingRight=4;overflow=hidden;rotatable=0;points=[[0,0.5],[1,0.5]];portConstraint=eastwest;fontSize=12;whiteSpace=wrap;html=1;" parent="Yu_OpDTn2ILr5B7UPivO-1" vertex="1"><mxGeometry y="26" width="160" height="30" as="geometry"/></mxCell><mxCell id="Yu_OpDTn2ILr5B7UPivO-57" value="Фамилия" style="text;strokeColor=none;fillColor=none;spacingLeft=4;spacingRight=4;overflow=hidden;rotatable=0;points=[[0,0.5],[1,0.5]];portConstraint=eastwest;fontSize=12;whiteSpace=wrap;html=1;" parent="Yu_OpDTn2ILr5B7UPivO-1" vertex="1"><mxGeometry y="56" width="160" height="30" as="geometry"/></mxCell><mxCell id="Yu_OpDTn2ILr5B7UPivO-58" value="Отчество" style="text;strokeColor=none;fillColor=none;spacingLeft=4;spacingRight=4;overflow=hidden;rotatable=0;points=[[0,0.5],[1,0.5]];portConstraint=eastwest;fontSize=12;whiteSpace=wrap;html=1;" parent="Yu_OpDTn2ILr5B7UPivO-1" vertex="1"><mxGeometry y="86" width="160" height="30" as="geometry"/></mxCell><mxCell id="Yu_OpDTn2ILr5B7UPivO-12" style="edgeStyle=orthogonalEdgeStyle;rounded=0;orthogonalLoop=1;jettySize=auto;html=1;endArrow=none;endFill=0;dashed=1;" parent="1" source="Yu_OpDTn2ILr5B7UPivO-5" target="Yu_OpDTn2ILr5B7UPivO-1" edge="1"><mxGeometry relative="1" as="geometry"><Array as="points"><mxPoint x="130" y="480"/></Array></mxGeometry></mxCell><mxCell id="Yu_OpDTn2ILr5B7UPivO-17" style="edgeStyle=orthogonalEdgeStyle;rounded=0;orthogonalLoop=1;jettySize=auto;html=1;endArrow=none;endFill=0;dashed=1;" parent="1" source="Yu_OpDTn2ILr5B7UPivO-5" target="Yu_OpDTn2ILr5B7UPivO-13" edge="1"><mxGeometry relative="1" as="geometry"><Array as="points"><mxPoint x="240" y="338"/><mxPoint x="240" y="338"/></Array></mxGeometry></mxCell><mxCell id="Yu_OpDTn2ILr5B7UPivO-22" style="edgeStyle=orthogonalEdgeStyle;rounded=0;orthogonalLoop=1;jettySize=auto;html=1;endArrow=none;endFill=0;dashed=1;" parent="1" source="Yu_OpDTn2ILr5B7UPivO-5" target="Yu_OpDTn2ILr5B7UPivO-18" edge="1"><mxGeometry relative="1" as="geometry"/></mxCell><mxCell id="Yu_OpDTn2ILr5B7UPivO-5" value="Пользователь" style="swimlane;fontStyle=0;childLayout=stackLayout;horizontal=1;startSize=26;horizontalStack=0;resizeParent=1;resizeParentMax=0;resizeLast=0;collapsible=1;marginBottom=0;align=center;fontSize=14;" parent="1" vertex="1"><mxGeometry x="50" y="310" width="160" height="86" as="geometry"/></mxCell><mxCell id="Yu_OpDTn2ILr5B7UPivO-59" value="Логин" style="text;strokeColor=none;fillColor=none;spacingLeft=4;spacingRight=4;overflow=hidden;rotatable=0;points=[[0,0.5],[1,0.5]];portConstraint=eastwest;fontSize=12;whiteSpace=wrap;html=1;" parent="Yu_OpDTn2ILr5B7UPivO-5" vertex="1"><mxGeometry y="26" width="160" height="30" as="geometry"/></mxCell><mxCell id="Yu_OpDTn2ILr5B7UPivO-60" value="Хэш пароля" style="text;strokeColor=none;fillColor=none;spacingLeft=4;spacingRight=4;overflow=hidden;rotatable=0;points=[[0,0.5],[1,0.5]];portConstraint=eastwest;fontSize=12;whiteSpace=wrap;html=1;" parent="Yu_OpDTn2ILr5B7UPivO-5" vertex="1"><mxGeometry y="56" width="160" height="30" as="geometry"/></mxCell><mxCell id="Yu_OpDTn2ILr5B7UPivO-32" style="edgeStyle=orthogonalEdgeStyle;rounded=0;orthogonalLoop=1;jettySize=auto;html=1;endArrow=ERoneToMany;endFill=0;dashed=1;" parent="1" source="Yu_OpDTn2ILr5B7UPivO-13" target="Yu_OpDTn2ILr5B7UPivO-23" edge="1"><mxGeometry relative="1" as="geometry"/></mxCell><mxCell id="Yu_OpDTn2ILr5B7UPivO-13" value="Организатор" style="swimlane;fontStyle=0;childLayout=stackLayout;horizontal=1;startSize=26;horizontalStack=0;resizeParent=1;resizeParentMax=0;resizeLast=0;collapsible=1;marginBottom=0;align=center;fontSize=14;" parent="1" vertex="1"><mxGeometry x="240" y="355" width="160" height="56" as="geometry"/></mxCell><mxCell id="Yu_OpDTn2ILr5B7UPivO-48" value="Наименование" style="text;strokeColor=none;fillColor=none;spacingLeft=4;spacingRight=4;overflow=hidden;rotatable=0;points=[[0,0.5],[1,0.5]];portConstraint=eastwest;fontSize=12;whiteSpace=wrap;html=1;" parent="Yu_OpDTn2ILr5B7UPivO-13" vertex="1"><mxGeometry y="26" width="160" height="30" as="geometry"/></mxCell><mxCell id="Yu_OpDTn2ILr5B7UPivO-79" style="edgeStyle=orthogonalEdgeStyle;rounded=0;orthogonalLoop=1;jettySize=auto;html=1;endArrow=ERoneToMany;endFill=0;dashed=1;" parent="1" source="Yu_OpDTn2ILr5B7UPivO-18" target="Yu_OpDTn2ILr5B7UPivO-34" edge="1"><mxGeometry relative="1" as="geometry"><Array as="points"><mxPoint x="270" y="158"/><mxPoint x="270" y="158"/></Array></mxGeometry></mxCell><mxCell id="Yu_OpDTn2ILr5B7UPivO-18" value="Игрок" style="swimlane;fontStyle=0;childLayout=stackLayout;horizontal=1;startSize=26;horizontalStack=0;resizeParent=1;resizeParentMax=0;resizeLast=0;collapsible=1;marginBottom=0;align=center;fontSize=14;" parent="1" vertex="1"><mxGeometry x="50" y="130" width="160" height="116" as="geometry"/></mxCell><mxCell id="Yu_OpDTn2ILr5B7UPivO-53" value="Имя" style="text;strokeColor=none;fillColor=none;spacingLeft=4;spacingRight=4;overflow=hidden;rotatable=0;points=[[0,0.5],[1,0.5]];portConstraint=eastwest;fontSize=12;whiteSpace=wrap;html=1;" parent="Yu_OpDTn2ILr5B7UPivO-18" vertex="1"><mxGeometry y="26" width="160" height="30" as="geometry"/></mxCell><mxCell id="Yu_OpDTn2ILr5B7UPivO-54" value="Фамилия" style="text;strokeColor=none;fillColor=none;spacingLeft=4;spacingRight=4;overflow=hidden;rotatable=0;points=[[0,0.5],[1,0.5]];portConstraint=eastwest;fontSize=12;whiteSpace=wrap;html=1;" parent="Yu_OpDTn2ILr5B7UPivO-18" vertex="1"><mxGeometry y="56" width="160" height="30" as="geometry"/></mxCell><mxCell id="Yu_OpDTn2ILr5B7UPivO-55" value="Отчество" style="text;strokeColor=none;fillColor=none;spacingLeft=4;spacingRight=4;overflow=hidden;rotatable=0;points=[[0,0.5],[1,0.5]];portConstraint=eastwest;fontSize=12;whiteSpace=wrap;html=1;" parent="Yu_OpDTn2ILr5B7UPivO-18" vertex="1"><mxGeometry y="86" width="160" height="30" as="geometry"/></mxCell><mxCell id="Yu_OpDTn2ILr5B7UPivO-42" style="edgeStyle=orthogonalEdgeStyle;rounded=0;orthogonalLoop=1;jettySize=auto;html=1;endArrow=ERoneToMany;endFill=0;dashed=1;" parent="1" source="Yu_OpDTn2ILr5B7UPivO-23" target="Yu_OpDTn2ILr5B7UPivO-38" edge="1"><mxGeometry relative="1" as="geometry"/></mxCell><mxCell id="Yu_OpDTn2ILr5B7UPivO-44" style="edgeStyle=orthogonalEdgeStyle;rounded=0;orthogonalLoop=1;jettySize=auto;html=1;endArrow=ERoneToMany;endFill=0;dashed=1;" parent="1" source="Yu_OpDTn2ILr5B7UPivO-23" target="Yu_OpDTn2ILr5B7UPivO-28" edge="1"><mxGeometry relative="1" as="geometry"/></mxCell><mxCell id="Yu_OpDTn2ILr5B7UPivO-82" style="edgeStyle=orthogonalEdgeStyle;rounded=0;orthogonalLoop=1;jettySize=auto;html=1;endArrow=ERoneToMany;endFill=0;dashed=1;" parent="1" source="Yu_OpDTn2ILr5B7UPivO-23" target="Yu_OpDTn2ILr5B7UPivO-34" edge="1"><mxGeometry relative="1" as="geometry"/></mxCell><mxCell id="Yu_OpDTn2ILr5B7UPivO-23" value="Турнир" style="swimlane;fontStyle=0;childLayout=stackLayout;horizontal=1;startSize=26;horizontalStack=0;resizeParent=1;resizeParentMax=0;resizeLast=0;collapsible=1;marginBottom=0;align=center;fontSize=14;" parent="1" vertex="1"><mxGeometry x="450" y="280" width="160" height="206" as="geometry"/></mxCell><mxCell id="Yu_OpDTn2ILr5B7UPivO-49" value="Наименование" style="text;strokeColor=none;fillColor=none;spacingLeft=4;spacingRight=4;overflow=hidden;rotatable=0;points=[[0,0.5],[1,0.5]];portConstraint=eastwest;fontSize=12;whiteSpace=wrap;html=1;" parent="Yu_OpDTn2ILr5B7UPivO-23" vertex="1"><mxGeometry y="26" width="160" height="30" as="geometry"/></mxCell><mxCell id="Yu_OpDTn2ILr5B7UPivO-50" value="Описание" style="text;strokeColor=none;fillColor=none;spacingLeft=4;spacingRight=4;overflow=hidden;rotatable=0;points=[[0,0.5],[1,0.5]];portConstraint=eastwest;fontSize=12;whiteSpace=wrap;html=1;" parent="Yu_OpDTn2ILr5B7UPivO-23" vertex="1"><mxGeometry y="56" width="160" height="30" as="geometry"/></mxCell><mxCell id="Yu_OpDTn2ILr5B7UPivO-52" value="Время начала" style="text;strokeColor=none;fillColor=none;spacingLeft=4;spacingRight=4;overflow=hidden;rotatable=0;points=[[0,0.5],[1,0.5]];portConstraint=eastwest;fontSize=12;whiteSpace=wrap;html=1;" parent="Yu_OpDTn2ILr5B7UPivO-23" vertex="1"><mxGeometry y="86" width="160" height="30" as="geometry"/></mxCell><mxCell id="10" value="Изображение" style="text;strokeColor=none;fillColor=none;spacingLeft=4;spacingRight=4;overflow=hidden;rotatable=0;points=[[0,0.5],[1,0.5]];portConstraint=eastwest;fontSize=12;" vertex="1" parent="Yu_OpDTn2ILr5B7UPivO-23"><mxGeometry y="116" width="160" height="30" as="geometry"/></mxCell><mxCell id="8" value="Количество игроков" style="text;strokeColor=none;fillColor=none;spacingLeft=4;spacingRight=4;overflow=hidden;rotatable=0;points=[[0,0.5],[1,0.5]];portConstraint=eastwest;fontSize=12;" vertex="1" parent="Yu_OpDTn2ILr5B7UPivO-23"><mxGeometry y="146" width="160" height="30" as="geometry"/></mxCell><mxCell id="9" value="Количество судей" style="text;strokeColor=none;fillColor=none;spacingLeft=4;spacingRight=4;overflow=hidden;rotatable=0;points=[[0,0.5],[1,0.5]];portConstraint=eastwest;fontSize=12;" vertex="1" parent="Yu_OpDTn2ILr5B7UPivO-23"><mxGeometry y="176" width="160" height="30" as="geometry"/></mxCell><mxCell id="Yu_OpDTn2ILr5B7UPivO-45" style="edgeStyle=orthogonalEdgeStyle;rounded=0;orthogonalLoop=1;jettySize=auto;html=1;endArrow=ERoneToMany;endFill=0;dashed=1;" parent="1" source="Yu_OpDTn2ILr5B7UPivO-28" target="Yu_OpDTn2ILr5B7UPivO-38" edge="1"><mxGeometry relative="1" as="geometry"/></mxCell><mxCell id="Yu_OpDTn2ILr5B7UPivO-28" value="Судья турнира" style="swimlane;fontStyle=0;childLayout=stackLayout;horizontal=1;startSize=26;horizontalStack=0;resizeParent=1;resizeParentMax=0;resizeLast=0;collapsible=1;marginBottom=0;align=center;fontSize=14;" parent="1" vertex="1"><mxGeometry x="450" y="522" width="160" height="56" as="geometry"/></mxCell><mxCell id="2" style="edgeStyle=orthogonalEdgeStyle;rounded=0;orthogonalLoop=1;jettySize=auto;html=1;endArrow=ERoneToMany;endFill=0;dashed=1;" edge="1" parent="1" source="Yu_OpDTn2ILr5B7UPivO-34" target="Yu_OpDTn2ILr5B7UPivO-38"><mxGeometry relative="1" as="geometry"><Array as="points"><mxPoint x="780" y="158"/></Array></mxGeometry></mxCell><mxCell id="5" style="edgeStyle=orthogonalEdgeStyle;rounded=0;orthogonalLoop=1;jettySize=auto;html=1;dashed=1;endArrow=ERoneToMany;endFill=0;" edge="1" parent="1" source="Yu_OpDTn2ILr5B7UPivO-34" target="Yu_OpDTn2ILr5B7UPivO-38"><mxGeometry relative="1" as="geometry"><Array as="points"><mxPoint x="690" y="158"/></Array></mxGeometry></mxCell><mxCell id="Yu_OpDTn2ILr5B7UPivO-34" value="Участник" style="swimlane;fontStyle=0;childLayout=stackLayout;horizontal=1;startSize=26;horizontalStack=0;resizeParent=1;resizeParentMax=0;resizeLast=0;collapsible=1;marginBottom=0;align=center;fontSize=14;" parent="1" vertex="1"><mxGeometry x="450" y="130" width="160" height="56" as="geometry"/></mxCell><mxCell id="Yu_OpDTn2ILr5B7UPivO-38" value="Партия" style="swimlane;fontStyle=0;childLayout=stackLayout;horizontal=1;startSize=26;horizontalStack=0;resizeParent=1;resizeParentMax=0;resizeLast=0;collapsible=1;marginBottom=0;align=center;fontSize=14;" parent="1" vertex="1"><mxGeometry x="660" y="355" width="160" height="56" as="geometry"/></mxCell><mxCell id="4" value="Результат" style="text;strokeColor=none;fillColor=none;spacingLeft=4;spacingRight=4;overflow=hidden;rotatable=0;points=[[0,0.5],[1,0.5]];portConstraint=eastwest;fontSize=12;" vertex="1" parent="Yu_OpDTn2ILr5B7UPivO-38"><mxGeometry y="26" width="160" height="30" as="geometry"/></mxCell></root></mxGraphModel></diagram></mxfile>